<?xml version="1.0" encoding="UTF-8" standalone="no"?>
<!DOCTYPE svg PUBLIC "-//W3C//DTD SVG 20010904//EN" "http://www.w3.org/TR/2001/REC-SVG-20010904/DTD/svg10.dtd">
<svg version="1.0" xmlns="http://www.w3.org/2000/svg" width="1280.000000pt" height="900.000000pt" viewBox="0 0 1280.000000 900.000000" preserveAspectRatio="xMidYMid meet">
<metadata>
Created by potrace 1.15, written by Peter Selinger 2001-2017
</metadata>
<g transform="translate(0.000000,900.000000) scale(0.100000,-0.100000)" fill="#000000" stroke="none">
<path d="M4826 8984 c-175 -32 -382 -120 -571 -245 -256 -168 -503 -485 -554 -708 -22 -99 48 -1 134 184 74 162 108 215 193 301 188 190 438 314 732 365 90 16 160 20 323 20 137 -1 207 3 207 10 0 16 -100 58 -177 74 -84 18 -183 18 -287 -1z"/>
<path d="M4985 8815 c-154 -24 -277 -65 -429 -142 -121 -60 -191 -110 -304 -212 -277 -250 -462 -575 -517 -910 -15 -88 -17 -144 -12 -350 8 -320 37 -516 109 -726 83 -246 193 -409 448 -666 148 -149 239 -200 511 -290 255 -83 465 -124 602 -117 94 5 139 24 162 68 33 64 7 96 -100 125 -62 17 -64 18 -50 39 17 23 20 72 5 81 -17 10 -11 21 16 34 25 11 26 15 22 64 -3 29 -9 61 -13 72 -4 11 35 -56 87 -150 109 -198 123 -222 359 -620 172 -291 277 -478 407 -722 67 -128 110 -189 229 -328 138 -161 262 -277 338 -317 l70 -38 -50 6 c-128 15 -230 53 -286 108 -18 17 -183 215 -367 439 -184 224 -337 406 -340 403 -2 -3 -28 -67 -57 -143 -55 -147 -133 -321 -318 -711 l-116 -242 42 -63 c23 -34 56 -71 74 -82 17 -11 38 -34 47 -52 23 -48 87 -114 125 -130 65 -28 780 -79 1446 -105 411 -16 1802 -16 2205 1 168 6 384 11 480 9 366 -5 394 -2 450 54 43 42 40 77 -9 121 -21 19 -55 41 -75 48 -33 12 -36 16 -30 44 10 56 -44 101 -169 139 l-58 18 6 72 c5 60 3 76 -13 102 -29 46 -110 111 -279 223 -84 56 -153 104 -153 107 0 4 42 52 93 108 285 315 522 580 525 587 2 5 -615 9 -1412 9 l-1416 0 0 -24 c0 -13 16 -126 36 -252 38 -248 104 -733 104 -768 0 -20 -5 -21 -128 -23 -113 -2 -124 -1 -97 11 102 45 165 161 165 304 0 119 -57 337 -141 538 -22 53 -86 189 -143 302 -57 114 -136 288 -176 387 -105 260 -161 363 -249 456 -24 24 -58 65 -77 91 -51 69 -142 149 -211 186 -94 50 -123 41 -123 -36 0 -73 53 -207 186 -474 320 -640 477 -1030 491 -1224 6 -79 5 -81 -21 -102 -15 -11 -34 -18 -42 -15 -8 3 -51 58 -95 122 -44 64 -120 172 -169 241 -97 135 -290 455 -470 775 -62 110 -148 260 -192 333 -365 609 -508 929 -511 1142 -2 96 13 134 62 169 44 31 69 27 110 -20 84 -97 121 -128 156 -135 52 -9 68 8 63 68 -6 61 -49 132 -107 176 -24 18 -53 51 -63 72 -11 22 -37 55 -59 75 -28 25 -34 35 -22 35 37 -1 114 -49 201 -126 71 -62 92 -86 98 -114 15 -77 80 -160 124 -160 12 0 21 -10 25 -29 12 -54 60 -118 99 -131 32 -10 41 -9 72 9 l36 21 36 -31 c113 -98 119 -105 114 -138 -3 -25 2 -37 31 -66 35 -35 56 -41 120 -36 l29 3 -22 -30 c-17 -23 -21 -38 -16 -58 10 -40 78 -104 110 -104 22 0 26 -5 26 -27 0 -41 35 -105 93 -170 29 -32 97 -111 151 -176 71 -85 101 -115 107 -105 14 22 10 61 -13 129 -33 99 -29 149 20 249 22 47 75 143 116 213 77 132 129 245 141 307 4 26 -8 9 -47 -63 -63 -115 -159 -252 -226 -322 -78 -80 -160 -154 -166 -147 -14 13 -4 77 19 132 14 32 61 120 105 195 131 222 178 332 178 415 0 19 5 64 11 100 16 94 13 255 -5 351 -30 157 -105 341 -147 360 -13 6 -32 27 -43 47 -47 89 -142 163 -214 166 -35 1 -40 4 -46 31 -11 52 -45 108 -103 170 -31 33 -76 86 -101 118 -57 76 -211 213 -330 292 -175 117 -389 211 -603 264 -48 12 -115 35 -150 50 -110 50 -234 61 -392 36z m-375 -370 c0 -2 -10 -9 -22 -15 -22 -11 -22 -10 -4 4 21 17 26 19 26 11z m-51 -29 c-2 -2 -40 -31 -84 -64 -44 -32 -111 -90 -149 -128 -38 -38 -64 -60 -58 -48 18 34 159 163 224 205 53 33 82 49 67 35z m1101 -35 c200 -43 396 -131 567 -255 161 -117 159 -121 -17 -37 -511 244 -912 299 -1357 186 -134 -34 -166 -32 -88 5 114 55 262 98 410 120 101 15 377 4 485 -19z m-1206 -465 c-9 -104 -80 -569 -89 -583 0 -1 -19 4 -40 12 -51 18 -77 18 -99 2 -30 -22 -21 -73 33 -210 52 -129 52 -129 40 -190 -11 -64 -8 -120 16 -297 8 -58 19 -188 24 -290 6 -102 15 -202 21 -222 21 -73 99 -124 334 -218 124 -49 206 -87 206 -94 0 -6 -89 13 -170 35 -143 39 -293 110 -383 181 -69 55 -165 286 -212 513 -94 453 -28 915 186 1301 46 83 136 210 144 202 1 -1 -3 -65 -11 -142z"/>
<path d="M11666 6790 c-109 -10 -207 -33 -306 -72 -82 -32 -115 -54 -65 -44 176 36 582 47 712 20 83 -17 183 -58 223 -92 l25 -21 -35 10 c-193 54 -449 50 -650 -11 -36 -10 -92 -24 -125 -31 -147 -28 -279 -102 -385 -216 -93 -99 -188 -250 -239 -381 -17 -44 -18 -50 -3 -77 29 -56 64 -94 98 -107 19 -6 33 -17 32 -23 -4 -17 50 -101 83 -129 65 -55 118 -26 232 127 46 62 96 131 113 154 16 24 31 43 35 43 3 0 20 -15 37 -33 l33 -34 -63 -49 -63 -49 99 -3 c81 -2 104 -6 128 -24 24 -17 39 -20 83 -15 50 5 56 3 138 -49 71 -46 88 -61 98 -92 20 -63 59 -135 99 -183 l38 -46 -62 -84 c-72 -98 -94 -118 -100 -98 -2 8 -9 29 -15 47 -7 22 -7 41 0 62 17 47 -5 95 -76 165 -34 34 -70 75 -79 93 -24 47 -112 128 -169 157 -147 73 -297 -4 -651 -334 -84 -79 -271 -241 -367 -319 l-28 -23 -20 39 c-19 38 -92 112 -110 112 -5 0 -30 32 -56 70 -55 82 -91 112 -160 133 -27 9 -42 16 -32 16 29 1 75 29 82 49 14 45 -17 67 -131 97 -80 21 -81 21 -53 34 32 14 48 54 32 80 -15 24 -110 59 -208 76 -95 16 -279 19 -390 6 -249 -30 -359 -41 -510 -50 -160 -10 -266 -28 -287 -49 -12 -12 77 -17 642 -38 234 -9 427 -17 428 -19 9 -9 -345 -44 -548 -55 -211 -11 -298 -23 -355 -49 l-40 -18 90 -6 c50 -4 243 -12 430 -17 271 -9 541 -21 648 -31 7 -1 -98 -14 -233 -29 -217 -26 -349 -33 -1155 -61 -500 -17 -1016 -32 -1145 -33 -129 -1 -241 -5 -247 -9 -17 -11 -16 -70 1 -110 17 -41 43 -63 92 -80 35 -12 40 -18 45 -53 7 -54 24 -81 62 -101 39 -21 -31 -21 1583 -10 1216 9 1232 9 1275 -11 24 -11 53 -27 64 -35 24 -19 52 9 -255 -251 -200 -169 -291 -258 -346 -340 l-25 -36 20 -44 c25 -58 58 -79 115 -75 l44 4 -19 -27 c-18 -25 -19 -30 -5 -62 39 -93 107 -111 209 -53 158 89 613 466 970 803 l139 131 39 -42 c22 -24 53 -48 70 -55 20 -9 35 -26 46 -52 43 -107 240 -198 496 -229 224 -27 461 38 647 179 346 261 467 752 281 1137 -36 75 -60 112 -186 285 -121 165 -345 310 -573 370 -42 11 -78 22 -80 25 -8 8 192 -4 268 -16 147 -23 255 -94 357 -232 32 -42 49 -57 67 -57 90 0 61 128 -48 209 -29 22 -47 45 -54 69 -25 83 -123 150 -308 211 -172 58 -320 76 -488 61z m386 -645 c92 -19 240 -97 304 -160 43 -41 54 -59 63 -103 20 -95 18 -98 -41 -54 -29 21 -75 51 -102 66 -27 16 -64 39 -84 52 -19 14 -49 24 -68 24 l-34 0 0 50 c0 66 -35 109 -98 117 -60 8 -164 -22 -218 -63 -24 -19 -54 -34 -65 -34 -12 0 -33 -9 -49 -20 l-28 -20 -26 21 c-56 44 -15 98 98 125 70 17 267 17 348 -1z m-413 -859 c25 -13 30 -25 50 -123 12 -59 29 -115 36 -123 13 -14 7 -20 -42 -49 -62 -38 -57 -38 -262 -1 -62 11 -131 20 -152 20 -22 0 -39 4 -39 9 0 21 244 222 315 260 47 25 57 26 94 7z"/>
<path d="M5334 5160 c-41 -16 -110 -110 -183 -246 -41 -77 -149 -251 -239 -389 -91 -137 -179 -275 -196 -305 l-31 -55 3 -139 c3 -153 -5 -195 -45 -226 -50 -39 -102 -23 -298 93 -118 69 -217 80 -268 29 -20 -20 -20 -22 37 -644 35 -384 62 -638 71 -663 16 -44 57 -75 98 -75 23 0 27 -6 37 -56 13 -63 42 -99 86 -110 48 -12 148 12 248 59 53 25 96 45 96 44 0 -1 22 -193 49 -427 30 -258 52 -496 56 -605 14 -398 56 -560 164 -633 22 -14 45 -44 63 -82 45 -93 70 -107 245 -136 81 -13 158 -26 171 -29 15 -4 22 -1 22 10 0 13 9 15 48 10 26 -4 75 -9 110 -13 l63 -7 32 -75 c23 -57 45 -90 92 -137 34 -34 68 -76 75 -92 17 -43 111 -128 167 -152 28 -12 78 -23 118 -26 59 -4 77 -1 115 19 37 19 46 29 48 54 3 27 -3 37 -40 67 -24 19 -58 42 -75 51 -22 11 -33 24 -33 39 0 47 -80 133 -142 153 -18 5 -18 7 -3 24 29 32 107 42 300 38 170 -4 188 -6 320 -41 114 -31 158 -38 240 -39 55 0 112 4 127 10 39 16 70 53 64 78 -6 21 -2 21 162 28 92 3 208 9 257 11 74 4 84 3 55 -6 -19 -6 -39 -14 -43 -19 -11 -10 18 -13 533 -55 234 -19 443 -36 465 -38 22 -2 -42 -4 -142 -5 -268 -3 -519 -20 -620 -44 -49 -11 -113 -21 -143 -21 -170 -2 -459 13 -555 28 -117 18 -526 27 -541 12 -11 -11 8 -21 94 -52 163 -58 293 -86 417 -92 106 -4 124 -2 157 15 37 19 37 19 117 -4 43 -12 119 -27 168 -33 79 -8 91 -8 119 10 17 10 48 19 69 19 54 0 708 -88 783 -105 113 -26 179 -18 202 25 21 39 -29 80 -98 80 -14 0 -23 2 -20 5 3 3 116 -3 250 -15 329 -27 319 -27 376 16 36 27 54 35 77 31 206 -30 210 -30 240 -16 40 19 44 46 8 60 -60 23 -331 58 -453 59 l-55 1 30 25 c49 41 67 45 150 29 116 -22 171 -20 198 8 21 23 25 23 107 15 108 -10 186 -33 209 -61 11 -12 45 -54 77 -94 179 -219 248 -292 307 -325 65 -37 186 -13 242 48 49 52 22 120 -69 175 -45 28 -55 39 -56 61 0 34 -50 92 -99 118 l-36 18 35 6 c19 3 141 15 270 27 213 18 257 19 479 9 134 -6 245 -9 248 -6 5 5 -42 516 -54 591 l-7 40 -17 -70 c-11 -45 -18 -119 -20 -205 -2 -74 -4 -110 -6 -80 -16 282 -84 1684 -133 2740 -11 234 -22 458 -24 498 -7 118 -50 182 -121 182 -18 0 -25 5 -25 20 0 11 -7 38 -16 60 -20 51 -66 80 -126 80 -40 0 -47 -3 -56 -27 -21 -56 -23 -88 -12 -222 8 -100 120 -3025 120 -3132 0 -15 -20 -18 -144 -24 -173 -9 -931 8 -1626 35 -714 29 -1288 39 -1620 29 -306 -8 -357 -11 -665 -36 -245 -20 -478 -21 -824 -3 -145 7 -301 10 -347 6 -99 -7 -88 -25 -103 174 -6 74 -27 320 -46 545 -19 226 -53 626 -75 890 -31 368 -49 530 -77 695 -32 184 -38 237 -37 365 0 119 3 158 16 186 15 32 66 103 175 244 51 65 137 204 208 335 32 58 82 147 112 198 61 104 93 185 93 234 -1 69 -57 149 -116 164 -16 4 -25 17 -33 48 -7 30 -24 55 -56 85 -45 42 -75 50 -121 31z m2921 -4830 c171 -13 249 -27 118 -23 -97 4 -383 34 -383 41 0 3 24 2 53 -1 28 -3 124 -11 212 -17z m282 -26 c-3 -3 -12 -4 -19 -1 -8 3 -5 6 6 6 11 1 17 -2 13 -5z"/>
<path d="M1256 5108 c-26 -82 -12 -125 71 -214 37 -41 175 -184 306 -318 l239 -243 -79 -33 c-222 -93 -416 -140 -931 -225 -541 -89 -661 -123 -678 -190 -11 -44 45 -112 120 -146 19 -9 26 -20 26 -40 0 -81 188 -189 405 -233 44 -9 172 -27 284 -41 112 -13 205 -26 208 -28 7 -7 -135 -91 -252 -150 -152 -76 -360 -156 -550 -212 -255 -76 -371 -131 -408 -194 -17 -30 -17 -31 7 -79 14 -27 47 -68 73 -91 26 -24 68 -72 93 -109 34 -50 57 -73 93 -91 48 -24 56 -25 365 -32 175 -4 384 -8 465 -8 82 -1 147 -5 145 -9 -7 -18 -167 -156 -273 -236 -164 -123 -276 -196 -467 -303 -202 -113 -275 -160 -341 -222 -62 -58 -77 -87 -77 -152 0 -44 4 -55 33 -84 19 -19 48 -36 69 -40 33 -6 36 -9 41 -52 5 -48 35 -88 77 -105 113 -45 362 -19 687 72 118 34 350 105 411 127 10 4 -51 -63 -134 -148 -160 -164 -232 -253 -270 -334 -30 -63 -32 -137 -4 -183 21 -34 74 -72 101 -72 11 0 19 -12 24 -37 10 -55 40 -98 83 -119 54 -27 173 -23 280 8 45 14 82 24 82 23 0 -1 -46 -36 -102 -78 -193 -141 -175 -141 103 1 405 206 863 464 1244 700 197 122 322 197 455 275 181 105 270 187 274 253 1 22 14 34 81 72 44 26 104 69 133 97 44 43 52 57 52 87 0 30 -7 42 -37 67 -20 16 -58 36 -85 42 -42 11 -46 15 -34 28 7 9 17 26 21 39 14 48 -78 100 -183 103 l-27 0 25 10 c14 6 97 33 185 61 173 54 250 87 278 120 34 40 22 157 -48 458 -19 80 -53 278 -76 441 l-42 296 -226 73 c-124 39 -235 80 -246 90 -11 9 -51 35 -90 58 -93 53 -597 304 -601 299 -2 -2 4 -11 13 -19 21 -17 357 -215 421 -248 24 -12 42 -23 40 -25 -6 -6 -189 60 -258 94 -38 18 -67 27 -70 21 -4 -7 -22 -5 -51 5 l-44 16 90 -93 c49 -51 193 -197 319 -324 184 -186 225 -233 210 -237 -55 -16 -298 -57 -340 -57 -27 0 -67 -7 -89 -15 -22 -8 -55 -14 -72 -15 -18 0 -33 -3 -33 -7 1 -12 272 -138 448 -208 l152 -62 -173 -145 c-96 -80 -208 -171 -251 -203 -42 -32 -75 -59 -73 -61 13 -13 617 73 648 92 16 10 9 -7 -21 -52 -33 -47 -44 -53 -54 -29 -17 45 -116 -12 -187 -109 -16 -21 -29 -43 -29 -48 0 -12 60 -9 103 6 20 8 37 12 37 9 0 -2 -56 -73 -125 -158 -119 -147 -131 -158 -243 -232 -64 -43 -261 -180 -437 -303 -337 -238 -470 -331 -495 -345 -8 -5 32 43 88 106 134 148 174 209 180 269 2 26 -1 57 -8 69 -13 25 -63 49 -109 53 -29 2 -30 4 -25 43 10 86 -43 125 -171 125 -88 0 -211 -19 -320 -49 -38 -11 -71 -18 -72 -17 -5 5 262 213 362 282 115 79 190 146 212 187 8 16 15 49 16 74 2 38 -2 49 -26 69 -17 14 -47 26 -78 30 -41 6 -49 10 -43 23 25 58 8 98 -54 130 -69 35 -142 44 -412 50 l-264 6 388 180 c214 99 402 192 417 207 17 15 29 36 29 51 0 32 -48 80 -112 113 -45 23 -49 27 -43 53 3 17 0 44 -8 64 -32 75 -134 120 -360 157 -76 13 -133 27 -125 31 7 4 182 41 388 83 451 92 499 105 535 148 24 28 26 38 21 76 -7 50 -29 91 -96 171 -25 31 -54 70 -64 86 -11 17 -47 58 -80 93 -57 59 -59 63 -31 56 96 -22 293 -107 615 -264 391 -190 462 -221 640 -275 192 -59 299 -72 338 -42 33 26 -17 131 -84 176 -19 14 -44 41 -54 62 -46 88 -170 161 -450 265 -85 31 -267 109 -405 174 -647 303 -909 413 -1343 561 -115 40 -199 50 -206 27z"/>
<path d="M4544 4804 c-53 -75 -126 -187 -162 -248 -36 -61 -83 -128 -104 -150 -36 -36 -41 -38 -82 -33 -63 9 -136 44 -304 145 -136 82 -249 139 -258 130 -14 -14 655 -408 693 -408 12 0 167 326 242 510 29 69 58 140 66 158 8 17 13 32 10 32 -2 0 -48 -61 -101 -136z"/>
<path d="M4684 4627 c-55 -78 -129 -190 -163 -249 -35 -59 -79 -122 -98 -140 -62 -60 -132 -41 -350 98 -137 88 -214 129 -263 139 -31 6 -33 5 -20 -8 48 -47 673 -407 686 -395 24 25 320 686 310 695 -1 1 -47 -61 -102 -140z"/>
<path d="M2746 3447 c-17 -12 -14 -16 36 -39 111 -53 213 -71 272 -48 24 9 63 56 55 65 -7 6 -252 35 -301 35 -24 0 -52 -6 -62 -13z"/>
<path d="M5325 3198 c3 -13 28 -167 55 -343 28 -176 71 -448 96 -605 75 -473 79 -634 24 -1000 -11 -74 -21 -146 -23 -160 l-2 -25 215 -7 c770 -24 1250 -30 2765 -34 935 -2 1766 -5 1848 -7 81 -1 147 1 147 5 0 5 -17 8 -39 8 -52 0 -305 34 -520 70 -210 36 -1081 203 -1077 207 1 2 113 25 247 52 l244 48 160 -8 c232 -11 470 -10 545 2 146 23 192 78 144 171 l-14 27 58 16 c31 9 89 26 127 37 l70 20 -205 58 c-113 31 -223 67 -245 78 -22 12 -58 22 -80 22 -34 1 -437 109 -449 121 -3 2 146 15 331 27 358 25 408 34 419 77 12 49 -53 134 -118 157 -17 6 -28 17 -28 28 0 21 5 21 323 44 97 7 180 16 184 19 3 4 -14 7 -38 7 -24 0 -150 7 -279 16 -209 14 -241 18 -285 40 -79 38 -153 47 -310 38 -223 -12 -426 -5 -960 32 -275 19 -506 35 -514 37 -14 2 1033 208 1054 207 6 0 28 -21 49 -46 52 -62 99 -81 268 -106 352 -52 748 -4 748 92 0 27 -47 68 -111 97 -53 24 -57 29 -44 43 21 23 19 37 -9 65 l-24 24 51 10 c29 6 120 24 202 40 148 28 149 28 95 34 -60 7 -731 45 -1910 107 -415 22 -989 53 -1275 70 -685 39 -875 48 -1145 55 -282 7 -515 22 -649 41 -130 18 -122 18 -116 -8z m3735 -1038 c14 -11 30 -20 36 -20 6 0 25 -27 42 -61 17 -34 26 -59 19 -57 -6 3 -118 33 -247 69 -129 35 -224 65 -210 67 77 8 223 19 275 20 46 1 66 -3 85 -18z"/>
<path d="M3059 2927 c-164 -55 -191 -93 -66 -91 93 0 177 51 177 106 0 23 3 23 -111 -15z"/>
<path d="M3540 1539 c-365 -192 -668 -383 -1305 -824 -176 -122 -383 -261 -460 -309 -170 -106 -298 -196 -291 -203 6 -6 529 260 741 377 206 114 429 244 625 365 398 245 481 296 585 356 213 124 302 226 253 292 -12 15 -26 10 -148 -54z"/>
<path d="M11179 919 c-9 -17 -12 -52 -9 -119 9 -179 5 -293 -12 -325 -42 -79 -99 -96 -283 -88 -118 6 -229 -9 -222 -30 2 -7 23 -15 48 -18 54 -9 558 -33 564 -28 7 7 -57 614 -65 623 -4 4 -14 -2 -21 -15z"/>
<path d="M5372 469 c-54 -11 -62 -29 -12 -29 16 0 51 -8 77 -19 62 -24 238 -28 229 -4 -3 8 -6 16 -6 19 0 2 -14 11 -32 20 -39 20 -180 27 -256 13z"/>
<path d="M5560 298 c-33 -9 -34 -11 -16 -24 29 -21 112 -46 142 -42 35 4 53 31 38 56 -13 20 -108 27 -164 10z"/>
<path d="M7420 217 c-25 -7 -45 -16 -45 -22 0 -19 100 -64 185 -84 112 -25 206 -35 215 -21 3 5 19 17 35 25 27 14 57 12 372 -30 189 -25 390 -55 448 -66 57 -12 122 -19 143 -16 77 10 104 72 44 100 -41 20 -175 37 -285 37 -46 0 -215 16 -375 35 -482 57 -643 66 -737 42z"/>
</g>
</svg>